<svg width="160" height="160" viewBox="0 0 160 160" xmlns="http://www.w3.org/2000/svg">
  <rect width="160" height="160" rx="48" fill="#0B1C34"/>
  <path d="M40 112L40 48H55.5L74.2 83.6L92.8 48H108.3L108.3 112H93.8L93.6 76.6L79.1 104.4H69.2L54.5 76.2L54.3 112H40Z" fill="#FFFFFF"/>
  <path d="M118 52C126 52 132 58 132 66C132 74 126 80 118 80C110 80 104 74 104 66C104 58 110 52 118 52ZM118 60C115 60 112 63 112 66C112 69 115 72 118 72C121 72 124 69 124 66C124 63 121 60 118 60Z" fill="#77FBC5"/>
</svg>
